<?xml version="1.0" encoding="UTF-8"?><svg id="Layer_2" xmlns="http://www.w3.org/2000/svg" xmlns:xlink="http://www.w3.org/1999/xlink" viewBox="0 0 501.3929 177.5879"><defs><linearGradient id="linear-gradient" x1="91.5563" y1="11.1697" x2="15.99" y2="148.768" gradientUnits="userSpaceOnUse"><stop offset="0" stop-color="#00ad72"/><stop offset="1" stop-color="#fff"/></linearGradient></defs><g id="Components"><g id="_057198aa-f7a8-40ac-8a64-5b2b2c1fac2f_7"><path d="M177.888,77.9082V18.7046h30.9277c13.6963,0,22.5322,7.7759,22.5322,21.3838s-8.8359,21.4727-22.5322,21.4727h-17.6729v16.3472h-13.2549ZM191.1429,30.6338v18.998h16.2588c7.334,0,10.7803-2.1206,10.7803-9.5435,0-7.2456-3.4463-9.4546-10.7803-9.4546h-16.2588Z" style="fill:#fff; stroke-width:0px;"/><path d="M234.3538,55.8173c0-14.1382,10.1621-23.063,25.2725-23.063s25.2715,8.9248,25.2715,23.063c0,13.9614-10.1611,22.9746-25.2715,22.9746s-25.2725-9.0132-25.2725-22.9746ZM271.7317,55.8173c0-7.7759-3.1807-11.3989-12.1055-11.3989-9.0137,0-12.1064,3.623-12.1064,11.3989s3.0928,11.2222,12.1064,11.2222c8.9248,0,12.1055-3.4463,12.1055-11.2222Z" style="fill:#fff; stroke-width:0px;"/><path d="M290.2005,61.2075v-27.5693h13.2549v23.1509c0,7.1577,3.0039,10.1621,11.3984,10.1621,8.6602,0,11.752-3.3579,11.752-10.8687v-22.4443h13.2549v44.27h-12.3711v-13.5195h-.707c-1.1484,7.4224-6.5381,14.4033-18.2021,14.4033-12.46,0-18.3799-7.688-18.3799-17.5845Z" style="fill:#fff; stroke-width:0px;"/><path d="M346.6663,77.9082V18.7046h13.2549v59.2036h-13.2549Z" style="fill:#fff; stroke-width:0px;"/><path d="M387.137,77.9082c-10.3379,0-16.6123-4.8599-16.6123-15.9937v-17.3193h-6.9805v-10.957h6.9805v-8.5713h13.2549v8.5713h14.3145v10.957h-14.3145v15.8169c0,4.4185,1.6787,5.5669,6.3623,5.5669h7.9521v11.9292h-10.957Z" style="fill:#fff; stroke-width:0px;"/><path d="M403.0433,77.9082v-44.27h12.2832v11.752h.7949c1.2373-7.1572,5.9209-12.6357,14.8447-12.6357,9.8975,0,13.9619,6.8042,13.9619,15.4639v7.334h-13.2549v-4.5947c0-4.8604-1.9434-6.981-7.334-6.981-5.9199,0-8.041,2.7393-8.041,8.3062v25.6255h-13.2549Z" style="fill:#fff; stroke-width:0px;"/><path d="M450.9368,92.9301v-12.0176h10.8691c3.2695,0,4.6826-.8838,5.5664-2.8276l-21.6484-44.4468h15.0215l9.3662,20.2354,3.7119,10.4268h.8828l3.5352-10.5151,8.3945-20.147h14.7568l-21.9141,47.4512c-4.2422,9.2783-10.1621,11.8408-21.2959,11.8408h-7.2461Z" style="fill:#fff; stroke-width:0px;"/><path d="M176.7396,142.5957v-.5303h13.2549v1.5908c0,5.4785,2.7393,7.6875,14.7568,7.6875,10.6035,0,13.0771-1.5903,13.0771-5.5669,0-3.623-2.0322-4.9482-8.1289-6.0088l-16.6123-2.3857c-10.6035-1.6787-16.8779-6.981-16.8779-16.6123,0-8.9248,7.2461-18.2915,27.1279-18.2915,18.2031,0,26.6855,8.3945,26.6855,20.854v.5303h-13.3428v-1.2373c0-5.6553-2.916-8.041-14.668-8.041-9.5439,0-12.46,1.8555-12.46,5.6553,0,3.4463,1.9443,4.6831,6.8926,5.5669l16.6123,2.6509c13.2549,2.1206,18.0264,8.5713,18.0264,16.7007,0,9.6318-7.5107,18.2915-26.332,18.2915-17.9385,0-28.0117-7.0693-28.0117-20.854Z" style="fill:#fff; stroke-width:0px;"/><path d="M237.7112,177.5879v-12.0176h10.8691c3.2695,0,4.6826-.8838,5.5664-2.8276l-21.6484-44.4468h15.0215l9.3662,20.2349,3.7119,10.4272h.8828l3.5352-10.5151,8.3945-20.147h14.7568l-21.9141,47.4512c-4.2422,9.2783-10.1621,11.8408-21.2959,11.8408h-7.2461Z" style="fill:#fff; stroke-width:0px;"/><path d="M291.3489,162.5659v-44.27h12.2832v13.6079h.7949c1.1484-7.4229,6.4502-14.4917,18.0264-14.4917,12.1055,0,17.8496,7.7759,17.8496,17.5845v27.5693h-13.2549v-23.1514c0-7.0688-2.916-10.0732-11.0449-10.0732-8.3955,0-11.3994,3.3579-11.3994,10.8687v22.356h-13.2549Z" style="fill:#fff; stroke-width:0px;"/><path d="M370.3489,151.5161c-7.8696,0-11.4897-2.9102-11.4897-11.04,0-8.22,3.6201-11.1301,11.4897-11.1301,5.25,0,8.9004,1.1799,10.3501,4.23h13.6401c-1.52-9.8298-10.75-16.1599-23.73-16.1599-15.2002,0-24.9199,8.9199-24.9199,23.0601,0,13.96,9.7197,22.97,24.9199,22.97,12.98,0,22.1997-6.3899,23.7202-16.1599h-13.6401c-1.4399,3.0598-5.1001,4.23-10.3403,4.23Z" style="fill:#fff; stroke-width:0px;"/><path d="M87.5732,166.2661c-9.5439,0-17.8975-5.5527-22.9688-15.2915-6.6367-12.7432-6.3369-29.4126.2793-42.8325-5.6475-1.2026-10.8945-.7261-14.8438,1.4087-10.2793,5.5547-11.082,22.0659-2.1475,44.167l-13.9062,5.6221c-6.1592-15.2363-8.4141-28.5186-6.7002-39.478,1.6582-10.6113,7.207-18.9595,15.623-23.5073,9.0664-4.8994,20.3672-4.9204,31.3203-.998,11.4355-11.2114,25.1924-14.481,35.3506-15.1357-8.2285-13.5669-18.1592-20.2144-50.1719-12.439-14.6641,3.5615-35.6611,6.896-48.6357-5.2192C.4462,52.9204-2.418,35.6602,2.0155,9.7954L3.6952,0l8.959,4.3013c8.6182,4.1372,32.1357,10.9946,49.8379,5.7866,16.0068-4.7104,27.5332-3.1831,34.2568,4.5396,5.6689,6.5103,7.0137,16.5562,3.9961,29.8584-.6045,2.666-1.3242,5.1899-2.0391,7.4233,2.6523.8691,5.1221,1.9775,7.4287,3.3262,10.9219,6.3853,16.3574,16.8179,22.1123,27.8638l8.2178,15.7197-15.4756-3.1787c-.8066-.1582-18.2441-3.4082-32.5303,7.2417,5.7451,4.1152,11.0078,9.3643,15.3193,15.5762,7.8877,11.3657,9.332,23.894,3.9629,34.373-4.1123,8.0244-11.8623,13.2969-19.7451,13.4316-.1406.0024-.2822.0034-.4229.0034ZM78.6191,114.1797c-5.374,10.2212-4.6416,22.3184-.7109,29.8672,1.7393,3.3398,4.876,7.3125,9.8311,7.2178,1.9199-.0327,4.8193-1.6973,6.6523-5.2739,2.7627-5.3921,1.6924-12.3101-2.9355-18.9805-3.752-5.4053-8.1914-9.6782-12.8369-12.8306ZM15.5136,21.4712c-1.6025,15.1011.2363,25.2168,5.4961,30.1274,5.7607,5.3794,17.1631,5.9062,34.8574,1.6069,10.6992-2.5986,19.9131-3.8188,27.9053-3.6523,4.7227-12.9473,3.9775-22.4248,1.6611-25.0791-2.4268-2.7812-9.2461-2.7808-18.707.0034-18.04,5.3105-38.543,1.1499-51.2129-3.0063Z" style="fill:url(#linear-gradient); stroke-width:0px;"/></g></g></svg>